<svg xmlns="http://www.w3.org/2000/svg" xmlns:xlink="http://www.w3.org/1999/xlink" width="453" zoomAndPan="magnify" viewBox="0 0 339.75 197.249993" height="263" preserveAspectRatio="xMidYMid meet" version="1.0"><defs><clipPath id="2367926b2c"><path d="M 186.585938 68.746094 L 193 68.746094 L 193 74 L 186.585938 74 Z M 186.585938 68.746094 " clip-rule="nonzero"/></clipPath><clipPath id="675e5e4fb9"><path d="M 197 68.746094 L 203.035156 68.746094 L 203.035156 74 L 197 74 Z M 197 68.746094 " clip-rule="nonzero"/></clipPath><clipPath id="fc0a0106e8"><path d="M 194 73 L 203.035156 73 L 203.035156 82.953125 L 194 82.953125 Z M 194 73 " clip-rule="nonzero"/></clipPath><clipPath id="0dd05ff873"><path d="M 186.585938 68.746094 L 199 68.746094 L 199 82.953125 L 186.585938 82.953125 Z M 186.585938 68.746094 " clip-rule="nonzero"/></clipPath><clipPath id="31b26d278d"><path d="M 191 73 L 199 73 L 199 82.953125 L 191 82.953125 Z M 191 73 " clip-rule="nonzero"/></clipPath><clipPath id="5f8352f8b1"><path d="M 38.632812 38.132812 L 301.710938 38.132812 L 301.710938 159.261719 L 38.632812 159.261719 Z M 38.632812 38.132812 " clip-rule="nonzero"/></clipPath><clipPath id="f3195ecb20"><path d="M 240.835938 38.132812 L 99.199219 38.132812 L 38.632812 98.695312 L 99.199219 159.261719 L 240.835938 159.261719 L 301.398438 98.695312 L 240.835938 38.132812 " clip-rule="nonzero"/></clipPath></defs><g clip-path="url(#2367926b2c)"><path fill="#bdddf4" d="M 192.527344 68.746094 L 189.785156 68.746094 L 186.589844 73.007812 L 191.15625 73.007812 Z M 192.527344 68.746094 " fill-opacity="1" fill-rule="nonzero"/></g><g clip-path="url(#675e5e4fb9)"><path fill="#5dadec" d="M 203.03125 73.007812 L 199.832031 68.746094 L 197.09375 68.746094 L 198.464844 73.007812 Z M 203.03125 73.007812 " fill-opacity="1" fill-rule="nonzero"/></g><g clip-path="url(#fc0a0106e8)"><path fill="#4289c1" d="M 198.464844 73.007812 L 203.03125 73.007812 L 194.808594 82.953125 Z M 198.464844 73.007812 " fill-opacity="1" fill-rule="nonzero"/></g><g clip-path="url(#0dd05ff873)"><path fill="#8ccaf7" d="M 191.15625 73.007812 L 186.589844 73.007812 L 194.808594 82.953125 Z M 192.527344 68.746094 L 191.15625 73.007812 L 198.464844 73.007812 L 197.09375 68.746094 Z M 192.527344 68.746094 " fill-opacity="1" fill-rule="nonzero"/></g><g clip-path="url(#31b26d278d)"><path fill="#5dadec" d="M 194.808594 82.953125 L 191.15625 73.007812 L 198.464844 73.007812 Z M 194.808594 82.953125 " fill-opacity="1" fill-rule="nonzero"/></g><g clip-path="url(#5f8352f8b1)"><g clip-path="url(#f3195ecb20)"><path fill="#d04621" d="M 38.632812 38.132812 L 301.710938 38.132812 L 301.710938 159.261719 L 38.632812 159.261719 Z M 38.632812 38.132812 " fill-opacity="1" fill-rule="nonzero"/></g></g></svg>